<svg width="44" height="44" viewBox="0 0 44 44" fill="none" xmlns="http://www.w3.org/2000/svg">
<rect width="44" height="44" rx="10" fill="black"/>
<path d="M20.0028 34.4145L17.8237 33.1889C16.6555 33.8471 17.116 35.6457 18.4527 35.6457H19.3681C19.5872 35.6457 19.8062 35.5889 19.9972 35.4811C20.4072 35.2485 20.4072 34.6528 19.9972 34.4201L20.0028 34.4145Z" fill="white"/>
<path d="M18.0595 15.3277C18.6604 15.9745 19.6714 15.9745 20.2723 15.3277C20.8227 14.7376 20.8227 13.8128 20.2723 13.2227L17.7225 10.4823C17.4361 10.1759 17.0373 10 16.6161 10C15.285 10 14.5942 11.6057 15.5097 12.5873L18.0595 15.3277Z" fill="white"/>
<path d="M25.7034 19.0554C25.1024 18.4086 24.0859 18.4086 23.4849 19.0554C22.9345 19.6455 22.9345 20.5703 23.4849 21.1604L28.8766 26.9533L25.1923 29.0299C24.1533 29.6143 24.1533 31.1292 25.1923 31.7136C25.6528 31.9746 26.2145 31.9746 26.675 31.7136L33.7628 27.7193L25.6978 19.0554H25.7034Z" fill="white"/>
<path d="M25.1922 32.7636L25.0068 32.6558L21.8841 30.897L14.8806 26.9537L21.8841 19.4359L23.9678 17.1947L28.2531 12.5933C29.1685 11.6117 28.4777 10.006 27.1466 10.006C26.7254 10.006 26.3267 10.1819 26.0402 10.4883L21.8841 14.9536L19.7949 17.1947L10 27.7196L18.7671 32.6615L21.8898 34.4204L23.7151 35.453C23.9397 35.5835 24.1981 35.6459 24.4564 35.6459C26.0234 35.6459 26.5682 33.541 25.1978 32.7693L25.1922 32.7636Z" fill="white"/>
</svg>
